<?xml version="1.0" encoding="UTF-8"?>
<!DOCTYPE svg PUBLIC "-//W3C//DTD SVG 1.1//EN" "http://www.w3.org/Graphics/SVG/1.1/DTD/svg11.dtd">
<!-- Creator: CorelDRAW 2021 (64-Bit) -->
<svg xmlns="http://www.w3.org/2000/svg" xml:space="preserve" width="297mm" height="210mm" version="1.1" style="shape-rendering:geometricPrecision; text-rendering:geometricPrecision; image-rendering:optimizeQuality; fill-rule:evenodd; clip-rule:evenodd"
viewBox="0 0 29700 21000"
 xmlns:xlink="http://www.w3.org/1999/xlink"
 xmlns:xodm="http://www.corel.com/coreldraw/odm/2003">
 <defs>
  <style type="text/css">
   <![CDATA[
    .fil3 {fill:#0F75BC}
    .fil1 {fill:#229CD7}
    .fil4 {fill:#51A245}
    .fil2 {fill:#88B83E}
    .fil5 {fill:#E8E9EA}
    .fil0 {fill:#F9AB1D}
   ]]>
  </style>
 </defs>
 <g id="Layer_x0020_1">
  <metadata id="CorelCorpID_0Corel-Layer"/>
  <g id="_2046468982752">
   <path class="fil0" d="M13799.21 1684.41l66.11 18.53c902.35,149.54 1175.44,142.08 2040.16,502.17 1159.26,482.77 1992.81,1467.88 2452.12,2623.46 1261.96,3174.93 42.81,5964.34 1496.49,8054.89 94.26,135.51 190.45,228.59 303.83,342.16 479.23,480 972.41,615.23 1621.27,617.69 136.02,0.51 190.06,-25.65 299.38,-21.18l92.29 -59.89c141.86,-382.14 227.21,-545.94 377.87,-995.08 119.48,-356.23 202.76,-705.64 277.88,-1106.34 115.73,-617.25 185.71,-1608.65 92.41,-2257.56 -95.21,-662.26 -69.14,-710.25 -258.76,-1448.48 -176.77,-688.23 -467.11,-1346.24 -804.48,-1964.03 -84.52,-154.78 -169.65,-292.8 -261.7,-430.46 -506.67,-757.9 -1068.05,-1427.36 -1789.55,-1994.06 -1364.88,-1072.03 -2901.84,-1748.98 -4668.78,-1883.35l-1017.43 -22.34c-142.29,0.19 -176.73,23.87 -319.11,23.87z"/>
   <path class="fil1" d="M9378.29 3322.43l0 4544.96 445.14 -258.24c561.82,-339.82 941.51,-439.15 1404.37,-672.02 340.66,-171.39 543.56,-248.86 898.1,-486.15 282.08,-188.81 554.52,-385.6 787.77,-619.59 304.21,-305.21 385.03,-404.24 624.11,-760.11 317.21,-472.17 462.2,-979.85 545.47,-1553.99 31.37,-216.3 17.5,-425.71 12.18,-632.58 -10.49,-408.85 -104.6,-890.7 -230.11,-1181.77l-66.11 -18.53 -662.29 79.08c-1172.42,197.55 -2319.77,596.51 -3295.2,1249.75l-463.43 309.19z"/>
   <path class="fil2" d="M7367.47 14857.9l-3.68 69.21c51.07,50.68 58.43,73.82 98.05,128.86l286.49 381.9c64.56,86.76 122.95,159.02 194.67,243.66 200.72,236.93 424.57,449.91 644.85,670.22l963.28 790.08c379.47,269.44 962.98,603.76 1400.58,791.18 112.35,48.1 209.05,85.24 314.23,131.75l3526.64 -2000.74c80.79,-46.29 140.36,-100.25 257.47,-118.2l-55.29 -38.89c-190.41,-47.27 -498.65,-187.77 -665.61,-271.23 -171.37,-80.47 -529.83,-226.06 -665.67,-336.48 -217.42,-87.68 -457.81,-255.32 -656.18,-369.55 -100.31,-71.69 -226.99,-139.24 -329.96,-198.94 -116.68,-67.66 -230.37,-110.09 -334.78,-201.84l-663.98 -320.37 -670.77 -273.47c-57.55,-4.52 -596.26,-184.53 -1018.32,-230.77 -774.12,-84.8 -1432.27,20.49 -2027.28,464.52 -400.07,298.56 -479.5,562.88 -594.74,689.1z"/>
   <path class="fil3" d="M7363.79 14927.11l3.68 -69.21 -155.29 -452.72c-651.36,-1953.46 -599.48,-3732.61 716.79,-5299.1 306.69,-365 683.7,-703.76 1077.64,-975.63l371.68 -263.06 0 -4544.96 -548.25 455.61c-56.16,52.21 -82.13,60.33 -138.83,114.94 -273.88,263.6 -658.51,657.92 -880.53,942.08 -806.17,1031.81 -1360.55,2074.44 -1683.34,3484.56 -405.09,1769.74 -192.92,3648.87 510.02,5276.13 29.76,68.86 53.16,102.21 82.65,171.15 104.17,243.66 151.26,301.73 262.19,522.2 57.63,114.58 123.14,211.4 188.21,319.36l193.38 318.65z"/>
   <path class="fil4" d="M22078.57 13822.13c-28.61,101.67 -282.46,394.54 -361.98,489.21 -315.78,375.79 -497.54,538.3 -878.51,851.83 -457.92,376.83 -1118.03,731.39 -1686.25,920.75 -203.39,67.76 -468.71,139.95 -698.39,178.29 -138.4,23.13 -231.87,35.72 -382.12,56.24 -85.97,11.74 -300.88,38.2 -399.28,40.35l-676.89 -9.29c-192.55,1.37 -466.05,-29.04 -676.73,-84.82l-657.01 -140.12 -611.36 -178.75c-117.11,17.95 -176.68,71.91 -257.47,118.2l-3526.64 2000.74c155.92,43.16 467.71,180.5 748.67,258.81 383.15,106.82 856.25,227.15 1271.96,273.77 807.2,90.55 1102.5,115.05 1918.88,46.19 472.97,-39.89 868.73,-104.01 1327.17,-218.59 274.18,-68.53 553.1,-154.01 796.27,-241.89l735.67 -302.52c661.15,-325.63 730.31,-371.51 1296.22,-757.12l705.28 -563.62c49.54,-49.29 72.43,-78.56 130.44,-123.33 138.81,-107.19 506.43,-496.5 641.83,-650.13 430.83,-488.82 863.28,-1097.16 1155.66,-1682.09 62.67,-125.4 105.21,-214.77 176.87,-342l-92.29 59.89z"/>
   <path class="fil5" d="M13662.8 8144.27l0.68 7154.95c135.84,110.42 494.3,256.01 665.67,336.48l2.56 -10190.75c-131.64,77.36 -263.69,271.83 -414.67,420.86 -324.16,319.96 -259.58,272.03 -259.36,594.27 0.35,515.26 -37.58,1188.75 5.12,1684.19z"/>
   <path class="fil5" d="M14994.44 11592.48l0.32 4314.45 55.29 38.89 611.36 178.75 1.86 -7980.3 -644.39 -1.88c-19.08,28.99 -8.88,1.58 -20,52.07 -24.09,109.65 -4.72,3390.5 -4.44,3398.02z"/>
   <path class="fil1" d="M15661.41 16124.57l657.01 140.12c-0.44,-543.57 -19.87,-5446.58 15.5,-5520.8 0,-543.38 -2.75,-1087.46 0.08,-1630.73 1.09,-209.27 33.05,-201.83 -73.71,-318.51 -43.62,-47.66 -48.01,-65.29 -93.35,-114.28l-503.67 -536.1 -1.86 7980.3z"/>
   <path class="fil1" d="M13007.3 14929.67c198.37,114.23 438.76,281.87 656.18,369.55l-0.68 -7154.95 -659.51 0 4.01 6785.4z"/>
   <path class="fil5" d="M12319.58 10737.97c91.29,165.62 -52.29,3255.4 22.98,3790.92 104.41,91.75 218.1,134.18 334.78,201.84 102.97,59.7 229.65,127.25 329.96,198.94l-4.01 -6785.4c-172.08,150.82 -417.05,463.45 -586.29,628.06 -109.49,106.49 -99.51,115.68 -97.77,317.51 4.77,548.6 0.35,1099.28 0.35,1648.13z"/>
   <path class="fil3" d="M14994.44 11592.48c-0.28,-7.52 -19.65,-3288.37 4.44,-3398.02 11.12,-50.49 0.92,-23.08 20,-52.07l1.36 -2537.3c4.33,-249.19 35.7,-183.2 -671.36,-183.2l28.39 6170.56 617.17 0.03z"/>
   <path class="fil5" d="M16318.42 16264.69c210.68,55.78 484.18,86.19 676.73,84.82l-2.27 -5598.24c-58.09,-51.04 -593.64,-24.63 -658.96,-7.38 -35.37,74.22 -15.94,4977.23 -15.5,5520.8z"/>
   <path class="fil1" d="M16995.15 16349.51l676.89 9.29c0,-1542.24 -17.87,-3173.7 0.71,-4708.5 2.75,-226.09 -29.54,-220.53 -295.33,-489.07 -73.3,-74.06 -105.34,-130.66 -184.01,-208.18l-200.53 -201.78 2.27 5598.24z"/>
   <path class="fil1" d="M14329.15 15635.7c166.96,83.46 475.2,223.96 665.61,271.23l-0.32 -4314.45 -617.17 -0.03 -28.39 -6170.56c-30.17,0 -23.65,-7.08 -17.17,23.06l-2.56 10190.75z"/>
   <path class="fil1" d="M11678.58 14208.52l663.98 320.37c-75.27,-535.52 68.31,-3625.3 -22.98,-3790.92 -104.03,-17.11 -215.75,-9.78 -323.01,-9.78l-270.99 4.58c-5.31,1.17 -12.12,3.81 -16.59,5.09 -4.17,1.2 -11.72,5.26 -14.94,6.38 -3.13,1.06 -9.94,3.84 -14.08,7.03l-1.39 3457.25z"/>
   <path class="fil5" d="M11007.81 13935.05l670.77 273.47 1.39 -3457.25c-67.96,38.58 -432.64,438.38 -467.82,484.49 -39.51,51.8 -59.23,72.97 -109.86,120.85 -161.59,152.84 -97.77,228.97 -97.77,640.49 0,622.34 -30.52,1325.75 3.29,1937.95z"/>
  </g>
 </g>
</svg>
