<?xml version="1.0" encoding="UTF-8"?>
<!DOCTYPE svg PUBLIC "-//W3C//DTD SVG 1.1//EN" "http://www.w3.org/Graphics/SVG/1.1/DTD/svg11.dtd">
<!-- Creator: CorelDRAW 2021 (64-Bit) -->
<svg xmlns="http://www.w3.org/2000/svg" xml:space="preserve" width="297mm" height="210mm" version="1.1" style="shape-rendering:geometricPrecision; text-rendering:geometricPrecision; image-rendering:optimizeQuality; fill-rule:evenodd; clip-rule:evenodd"
viewBox="0 0 29700 21000"
 xmlns:xlink="http://www.w3.org/1999/xlink"
 xmlns:xodm="http://www.corel.com/coreldraw/odm/2003">
 <defs>
  <style type="text/css">
   <![CDATA[
    .fil0 {fill:#09673A}
    .fil3 {fill:#67411D}
    .fil1 {fill:#8D6238}
    .fil2 {fill:#AF8557}
   ]]>
  </style>
 </defs>
 <g id="Layer_x0020_1">
  <metadata id="CorelCorpID_0Corel-Layer"/>
  <g id="_2046319208928">
   <path class="fil0" d="M11767.37 12234.13c0,-84.92 -4.74,-94.66 70.4,-112.29 308.74,-72.42 652.21,111.25 668.37,552.58 26.95,736.22 -738.77,572.17 -738.77,439.66l0 -879.95zm-510.37 -208.41l98.35 42.01c57.97,14.7 82.86,12.92 114.48,45.01 73.27,74.36 40.96,762.02 40.96,885.56 0,310.14 36.54,964.48 -48.64,1203.35l-106.28 30.25c-75.58,34.97 -15.18,-24.85 -50.28,40.02 62.37,38.19 697.4,31.69 762.46,6.52 -15.82,-22.72 2.72,-32.89 -93.74,-52.7 -62.37,-12.8 -94.77,-8.08 -143.33,-24.43 -96.83,-189.86 -67.45,-623.86 -62.42,-873.72 123.57,-3.86 345.94,-36.61 425.65,28.9 67.18,55.21 439.3,651.21 643.02,817.91 201.34,164.75 546.94,131.08 850.83,119.24 258.71,-10.08 758.27,47.4 963.99,-9.09 27.8,-16.6 114.7,-277.27 32.41,-356.53 -68.59,116.33 -30.02,198.85 -201.61,235.04 -670.96,141.54 -512.72,-302.9 -512.72,-833.83 174.35,-17.81 392.83,-17.53 530.16,33.85 38.49,120.84 -3.84,114.27 73.79,147.67l41.5 -385.18c-105.02,31.22 -29.08,27.51 -122.39,53.36 -103.31,28.62 -426.52,34.69 -517.06,17.57l-6.15 -721.77c193.87,-19.55 405.75,-8.8 561.64,37.1l59.54 162.62c46.15,-57.06 39.68,-71.1 47.32,-161.86 6.69,-79.38 15.67,-116.04 21.97,-185.66l-1163.52 46.14c5.61,3.46 15.1,-0.45 18.43,7.16 18.83,43.01 -10.93,-11.02 94.87,26.12 89.35,31.37 45.4,3.61 80.39,60.96 49.38,90.18 27.09,1275.24 18.8,1550.84 -1.47,48.92 3.05,54.22 -10.59,103.11 -22.02,78.99 -30.82,78.71 -84.67,100.87 -101.72,41.84 -289.27,-4 -378.59,-53.39 -118.5,-65.52 -214.26,-176.28 -304.21,-274.14 -163.86,-178.28 -358.94,-452.56 -510.24,-641.58 78.41,-111.59 213.85,-185.81 308.86,-449.88 170.73,-474.5 -125.31,-803.31 -708.93,-804.17 -145.58,-0.22 -682.36,-26.4 -764.05,26.75z"/>
   <path class="fil1" d="M14015.02 7976.07c238.92,386.12 1231.87,867.83 1502.32,868 143.79,0.1 714.93,-258.37 844.94,-327.41 268.89,-142.79 505.48,-341.44 653.28,-536.31 -233.27,-70.69 -531.34,-96.68 -785.52,-164.25 -125.37,-33.34 -675.3,-236.15 -710.27,-235.63l-714.48 235.96c-276.56,70.33 -507.24,107.73 -790.27,159.64z"/>
   <path class="fil2" d="M15517.43 5307.55c-353.31,216.51 -639.18,667.3 -760.15,1071.33 -43.34,144.76 -79.92,233.69 0.13,339.64 72.41,95.82 136.56,177.54 212.08,251.25 71.12,69.43 430.99,363.42 548.03,364.52 149.54,1.41 628.45,-404.56 757.24,-594.02 216.76,-318.85 -414.97,-1264.27 -757.33,-1432.72z"/>
   <path class="fil3" d="M13872.45 9292.37c132.12,248.87 1210.57,633.36 1644.95,631.32 251.84,-1.18 701.71,-141.94 921.65,-214.92 147.74,-49.02 256.7,-95.49 391.28,-166.35 64.69,-34.06 109.09,-67.3 168.91,-108.41 94.71,-65.09 116.96,-66.17 166.46,-144.93 -283.99,-25.56 -566.41,-51.99 -844.91,-85.53 -229.32,-27.62 -638.06,-145.8 -803.64,-147.01l-1644.7 235.83z"/>
   <path class="fil0" d="M6096.12 14274.76c55.51,30.54 565.86,31.78 647.49,9.9 -74.55,-127.49 -214.72,19.57 -250.24,-203.5l-31.54 -1309.6c145.36,118.96 250.73,253.45 374.03,386.71 66.71,72.1 120.68,137.13 188.53,205.92 189.1,191.71 875.16,908.23 1008.99,949.59 69.66,-192.89 3.01,-1739.43 38.89,-1838.45 34.26,-94.55 93.81,-51.86 171.6,-102.26 -29.02,-22.33 8.77,-8.96 -48.89,-20.57l-481.77 -3.8c-8.43,1.17 -13.74,2.09 -21.63,3.66l-40.54 12.73c-5.31,1.6 -13.42,4.52 -19.55,7.98 6.27,3.39 16.22,-0.85 20.06,7.4 17.89,38.45 12.97,5.73 40.44,12.8 21.92,5.65 36.12,6.24 60.06,12.6 103.3,27.4 54.62,-1.64 102.27,59.82 54.94,129.18 42.22,1183.9 45.61,1416.75l-985 -1010.97c-110.95,-125.84 -208.54,-227.96 -321.62,-351.42 -354.37,-386.95 -294.05,-281.58 -294.05,617.18 0,223.85 0.32,447.71 0.01,671.55 -0.82,609.19 -59.81,284.66 -203.15,465.98z"/>
   <path class="fil0" d="M22015.62 12464.75c5.77,111.52 46.19,1645.03 -28.41,1723.6 -30.58,32.19 -32.04,19.32 -79.05,36.11 -87.1,31.09 -60.28,7.53 -92.48,57.43 62.54,22.28 588.87,20.74 649.29,-2.22 -32.15,-47 -15.15,-33.98 -114.63,-56.14 -62.96,-14.03 -75.39,-6.54 -107.48,-54.05 -59.96,-88.8 -57.63,-1188.28 -61.75,-1395.41l762.81 786.57c132.33,139.58 252.47,262.8 390.46,397.02 85.91,83.57 299.99,318.29 420.83,354.57 63.85,-220.26 6.18,-1747.17 38.3,-1839.99 30.62,-88.49 102.71,-54.46 170.65,-99.17 -34.91,-28.06 -66.89,-25.75 -131.37,-26.54 -119,-1.46 -426.59,-15.75 -480.53,26.54 78.74,55.43 106.83,-4.13 198.58,71.42 88.86,107.5 47.09,408.27 53.38,577.1l16.34 865.02 -1161.03 -1207.12c-91.08,-99.72 -281.89,-351.84 -412.47,-376.17l-31.44 161.43z"/>
   <path class="fil0" d="M18274.42 12488.85c154.72,-94.21 480.45,-35.58 650.24,19.37 731.58,236.74 748.14,1113.08 425.66,1451.48 -257.08,269.78 -1054.17,373.44 -1076.67,36.24 -23.65,-354.36 -36.7,-1167.81 0.77,-1507.09zm-489.29 -115.78l90.17 28.64c116.46,31.98 123.99,36.89 130.13,251.78 10.81,377.79 26.16,1252.18 -36.49,1548.42 -97.21,46.36 -102.29,2.39 -140.28,70.01 56.95,33.52 518.63,20.38 703.3,37.9 1492.55,141.56 1666.21,-1552.31 686.33,-1887.86 -302.9,-103.72 -712.67,-73.81 -1061,-74.43 -141.18,-0.26 -311.96,-17.09 -372.16,25.54z"/>
   <path class="fil0" d="M3173.94 12025.72c28.1,24.39 1.92,9.88 46.3,27.51 46.37,18.4 25.26,6.63 70.91,19.03 164.05,44.58 136.54,135.85 135.33,370.21l0.44 1343.35c5.93,604.34 -128.68,340.98 -204.83,486.1 55.61,35.45 692.81,33.47 765.3,8.93 -106.21,-163.54 -255.93,114.71 -284.91,-326.19 -17.29,-263.02 -58.32,-1736.1 5.41,-1806.12l113.92 -40.35c648.56,-60.83 865.29,975.3 125.97,1081.53l-135.9 40.15c6.06,3.58 15.4,0.51 19.25,8.7 3.88,8.2 14.19,6.49 19.66,7.88 0.02,0 382.57,72.96 633.76,-212.08 127.46,-144.63 244.08,-445.16 137.05,-695.32 -187,-437.06 -786.97,-327.59 -1238.71,-339.5 -27.93,-0.73 -91.24,-3.34 -116.18,-0.88l-92.77 27.05z"/>
   <path class="fil0" d="M26046.9 13815.59c-108.55,46.41 -57.49,282.33 -333.13,347.38 -545.94,128.81 -1184.16,-234.77 -1189.08,-886.14 -3.42,-453.94 163.1,-756.59 562.61,-827.06 214.11,-37.77 416.95,-34.39 606.22,29.81 355.73,120.67 190.91,285.98 319.93,400.64 35.29,-69.89 52.81,-393.42 31.9,-498.79 -611.21,-122.85 -1386,-173.92 -1696.36,461.84 -376.3,770.84 212.49,1660.93 1415.79,1464.08 128.84,-21.08 208.64,-18.96 246.62,-147.97 27.89,-94.71 56.89,-235.63 35.5,-343.79z"/>
   <path class="fil0" d="M20194.68 12373.07c225.68,146.32 227.77,-183.07 227.77,810.48 0,291.06 25.83,770.58 -45.14,1022.18 -27.45,11.42 -58.28,13.46 -68.64,17.66 -74.57,30.2 -38.31,-6.79 -68.69,48.53 81.52,50.53 404.1,17.6 534.02,22.79 171.62,6.84 408.3,13.66 576.18,-2.65 42.21,-68.29 103.91,-284.69 50.47,-360.96 -130.02,104.07 15.2,200.62 -263.72,240.98 -603.81,87.36 -456.61,-187.15 -456.61,-849.06 328.72,0.52 462.77,-46.46 537.58,112.55 2.34,4.98 4.12,11.76 6.49,16.56l35.9 54.28c40.36,-61.14 47.19,-283.35 52.16,-380.47 -263.63,94.2 -283.91,80.29 -630.11,80.75l-1.59 -737.93c134.03,0 276.72,-12.39 407.37,7.6 286.78,43.89 78.25,128.8 225,200.75l44.96 -353.28c-171.46,12.02 -1107.85,9.01 -1163.4,49.24z"/>
   <path class="fil1" d="M15747.17 7440.69c107.74,127.3 1146.69,352.37 1338.82,341.27 10.11,-248.94 -269.95,-1153.2 -410.73,-1288.22l-394.15 530.52c-128.31,148.74 -407.75,311.38 -533.94,416.43z"/>
   <path class="fil1" d="M13942.61 7788.21c296.78,-14.7 743.22,-121.09 1034.18,-215.35l321.43 -151.45c-257.87,-80.38 -577.89,-423.13 -735.49,-646.83 -35.47,-50.35 -65.18,-90.02 -95.08,-135.37 -18.39,-27.91 -26.71,-43.26 -44.56,-70.51 -39.71,-60.65 1.43,-29.52 -63.49,-76.18 -164.13,192.19 -390.67,981.71 -416.99,1295.69z"/>
   <path class="fil0" d="M26456.72 12373.07c220.52,155.6 219.19,-257.49 219.16,810.48 -0.01,323.85 31.91,748.58 -37.25,1032.58 -17.51,2.79 -59.08,4.86 -73.57,9.54 -82.82,26.7 -36.6,-7.48 -68,46.25 63.33,38.29 1040.99,38.38 1114.68,8.42 49.42,-37.02 73.12,-213.2 60.33,-284.73 -12.24,-68.47 -11.57,-44.66 -20.54,-62.54 -65.08,109.36 -27.61,194.38 -221.91,233.05 -92.62,18.44 -329.4,21.89 -414.77,-21.18 -109.53,-55.26 -78.32,-213.2 -77.99,-359.29 0.36,-154.04 0.17,-308.15 -0.1,-462.19 391.62,-2.39 485.26,-44.05 554.47,135.6l89.62 -324.12c-92.26,13.21 -39.16,19.14 -121.37,41.92 -105.35,29.19 -414.14,31.08 -521.44,28.16l-1.29 -736.28c197.55,0.12 387.91,-8.38 552.32,45.81l69.83 156.8c42.2,-68.13 49.9,-251.64 59.16,-346.15 -160.32,13.41 -1116.43,11.04 -1161.34,47.87z"/>
   <path class="fil0" d="M8585.47 12373.07c5.82,3.44 15.38,-0.4 18.86,7.49l174.86 50.95c27.59,103.41 48.72,1642.48 -7.53,1740.01 -54.69,94.84 -92.24,17.14 -154.75,107.92 57.52,22.95 1046.15,27.53 1124.21,4.15 51,-55.85 95.03,-287.98 33.55,-355.03 -70.7,114.56 -14.89,193.92 -201.42,234.25 -668.28,144.47 -516.52,-303.86 -516.52,-838.07 820.83,-21.24 413.17,104.54 606.83,186.66l41.48 -384.71c-114.16,29.6 -36.5,57.68 -283.37,71.51 -108.28,6.07 -253.02,13.64 -358.64,2.19l-6.5 -729.87c197.6,-5.35 402.9,-6.85 562.94,42.19 8.68,23.93 14.25,54.21 24.08,81.8 2.4,6.73 9.88,27.09 12.67,33.4 16.48,37.16 9.89,25.81 25.73,46.31 54.5,-76.31 55.79,-243.64 67.27,-345.26 -170.71,-0.86 -383.56,17.65 -576.72,17.75l-568.74 18.37c-4.77,1.52 -12.63,4.5 -18.29,7.99z"/>
   <path class="fil1" d="M15126.3 8944.9c-207.27,-173.87 -889.42,-260.81 -1396.12,-1035.5l-95.75 -110.77c-43.15,385.52 -38.07,642.18 23.56,1017.13 19.57,119.08 13.1,265.68 103.47,285.72 159.11,35.29 1189.71,-114.68 1364.84,-156.58z"/>
   <path class="fil1" d="M15896.89 8936.93c229.03,73.57 1156.99,188.49 1417.3,161.58 116.69,-230.14 130.13,-1003.61 81.3,-1299.76 -88.14,69.62 -214.56,387.72 -643.11,691.67 -116.78,82.84 -257.28,172.71 -402.02,245 -132.07,65.95 -344.07,129.83 -453.47,201.51z"/>
   <path class="fil0" d="M15139.6 13829.07c-26.09,103.99 -28.4,290.93 -7.47,411.32 410.54,211.05 1222.64,75.77 1076.28,-588.36 -104.54,-474.34 -902.09,-577.62 -825.15,-1018.49 28.6,-163.88 185.48,-224.86 387.35,-211.41 343.74,22.92 275.01,178.14 348.89,278.67l29.95 -74.71c4.42,-20.67 6.67,-63.61 8.2,-86.34 4.3,-63.91 8.46,-124.4 8.53,-190.21 -206.26,-9.54 -321.28,-83.23 -567.56,-34.43 -439.73,87.12 -705.87,569.28 -29.09,1048.16 175.85,124.42 640.47,426.74 349.65,731.82 -97.04,101.8 -319.58,146.77 -495.01,84.48 -312.39,-110.92 -158.2,-285.19 -284.57,-350.5z"/>
   <path class="fil0" d="M16706.65 12373.07c198.35,139.67 192.71,-142.17 191.97,833.64 -0.2,271.58 17.84,762.01 -41.44,995.46 -33.85,16.11 -57.47,15.32 -69.83,20.52 -77.05,32.44 -37.38,-9.65 -70.63,49.23 75.57,44.1 631.88,28.2 677.41,0 -92.2,-168.39 -224.06,151.8 -232.92,-323.8l1.2 -1435.88c8.72,-56.68 11.6,-64.47 47.35,-89.44l122.72 -49.73c-69.09,-41.8 -228.09,-25.44 -309.87,-25.43 -95.19,0 -257.99,-21.21 -315.96,25.43z"/>
   <path class="fil0" d="M5055.21 12373.07c209.89,143.18 189.02,-162.19 189.02,833.64 0,297 24.87,722.88 -34.8,993.02 -74.86,37.2 -86.28,7.47 -150.73,66.88 56.4,45.01 53.31,32.3 152.26,29.6 64.71,-1.77 120.94,-8.65 187,-7.67 107.5,1.58 264.26,35.53 345.27,-16.62 -56.48,-107.02 -137.9,-4.31 -205.72,-92.64 -58.29,-75.91 -41.14,-1641.75 -17.09,-1706.78 30.97,-83.74 101.83,-62.09 160.71,-99.43l-142.79 -26.36c-81.23,-0.73 -427.4,-15.86 -483.13,26.36z"/>
   <path class="fil3" d="M14454.64 10196.34c77.18,54.89 938.78,328.84 1062.72,328.9 243.03,0.13 829.06,-246.57 1072.26,-311.96 -61.18,-62.32 -121.97,-45.7 -261.68,-44.05 -329.17,3.88 -534.02,-46.31 -810.66,-45.75l-1047.34 66.53c-3.46,1.04 -10.66,3.33 -15.3,6.33z"/>
   <path class="fil3" d="M14643.97 10933.46c157.12,100.14 611.6,191.77 873.47,191.71 311.75,-0.07 646.14,-90.23 878.52,-189.25 -67.62,-46.39 -811.16,-189.02 -878.52,-189.11 -86.31,-0.12 -828.56,160.42 -873.47,186.65z"/>
   <path class="fil3" d="M15104.43 10642.74c-59.96,-72.59 -815.22,-282.85 -1054.95,-392.38 -119.95,-54.8 -243.85,-96.99 -402.55,-71.99 58.59,160.92 384.07,436.08 540.85,538.08 156.21,101.65 263.19,48.95 450.39,13.57 153.38,-29 316.58,-54.2 466.26,-87.28z"/>
   <path class="fil3" d="M15928.87 10645.41c138.82,30.28 307.39,54.73 449.21,80.28 266.79,48.06 363.63,118.88 616.14,-117.69 70.37,-65.93 90.22,-75.82 149.64,-127.53 62.5,-54.39 209.48,-218.14 245.72,-303.75 -293.85,-18.34 -866.81,264.03 -1277.97,381.01 -90.18,25.66 -132.12,26.08 -182.74,87.68z"/>
   <path class="fil3" d="M14809.81 9953.51c-958.88,-212.85 -1065.52,-667.6 -1383.17,-744.51 30.79,236.73 243.53,588.24 362.56,724.04 80.27,91.58 322.02,65.08 477.77,63.39 103.23,-1.13 465.73,22.99 542.84,-42.92z"/>
   <path class="fil3" d="M16222.35 9951.84c70.94,59.51 180.56,43.06 290.81,42.88 154.93,-0.24 308.12,-5.6 463.34,-3.47 242.5,3.33 226.8,10.04 328.2,-139.92 115.01,-170.09 294.97,-408.62 300.61,-650.16 -170.14,72.38 -202.3,108.15 -309.46,226.13 -84.06,92.54 -199.43,155.11 -308.42,223.28 -196.14,122.68 -521.29,254.83 -765.08,301.26z"/>
  </g>
 </g>
</svg>
