<?xml version="1.0" encoding="UTF-8"?>
<!DOCTYPE svg PUBLIC "-//W3C//DTD SVG 1.1//EN" "http://www.w3.org/Graphics/SVG/1.1/DTD/svg11.dtd">
<!-- Creator: CorelDRAW 2021 (64-Bit) -->
<svg xmlns="http://www.w3.org/2000/svg" xml:space="preserve" width="297mm" height="210mm" version="1.1" style="shape-rendering:geometricPrecision; text-rendering:geometricPrecision; image-rendering:optimizeQuality; fill-rule:evenodd; clip-rule:evenodd"
viewBox="0 0 29700 21000"
 xmlns:xlink="http://www.w3.org/1999/xlink"
 xmlns:xodm="http://www.corel.com/coreldraw/odm/2003">
 <defs>
  <style type="text/css">
   <![CDATA[
    .str0 {stroke:#0D9488;stroke-width:70.56;stroke-miterlimit:2.61313}
    .fil0 {fill:#0D9488}
   ]]>
  </style>
 </defs>
 <g id="Layer_x0020_1">
  <metadata id="CorelCorpID_0Corel-Layer"/>
  <path class="fil0 str0" d="M8594.84 11612.84c0,-1067.25 148.93,-1126.65 183.3,-1539.69 98.07,71.86 465.12,845.79 673.76,1122.54 129.01,171.12 330.7,246.29 558.68,321.15 663.44,217.86 816.71,152.2 234.07,1305.9 -872.48,1727.6 109.84,1100.94 109.84,2712.63 -406.74,-272.36 -989.56,-1161.75 -1210.33,-1612.43 -283.4,-578.52 -549.32,-1448.89 -549.32,-2310.1zm8834.86 256.61c0,1113.07 485.75,1481.46 -576.93,2429.11 -348.11,310.43 -973.44,676.7 -1110.9,-118.06 -161.79,-935.37 18.43,-1747.51 -91.72,-2474.43 -239.87,-1582.97 -848.69,-863.08 -2326.27,-863.08 -190.93,0 -401.98,-50.44 -541.85,-154.68l-132.87 -123.73c-664.06,-747.05 -116.53,-1675.86 703.72,-2222.07 92.91,-61.87 149.22,-97.13 237.32,-165.92 278.91,-217.8 691.36,-117.19 1530.01,-449.6 462.81,-183.43 897.4,-381.14 1318.48,-624.45 278.95,-161.18 294.89,-282.96 507.69,-141.69 86.51,57.44 151.63,101.33 242.06,164.21 93.68,65.15 124.45,99.28 204.61,161.99 372.97,291.76 493.44,404.68 798.08,778.27 66.68,81.77 113.32,139.52 180.71,222.53 460.69,567.56 584.25,1079.23 817.51,1565.34 -254.44,67.94 -914.59,561.24 -1137.29,732.33 -113.78,87.42 -131.86,139.77 -228.89,247.69 -226.57,252.02 -393.47,684.7 -393.47,1036.24zm0 -6561.99c-199.94,-95.94 -1342.85,-272.1 -1646.6,-333 -135.62,-27.18 -247.12,-51.06 -402,-74.56 -242.15,-36.74 -214.93,1.47 -341.32,-171.91 -150.23,-206.08 -284.44,-396.37 -432.86,-593.59l-1471.5 -2011.14c-80.29,-106.24 -142.67,-190.72 -214.79,-298.43 892.14,0 1562.77,319.8 2199.45,769.95 163.74,115.77 423.12,403.15 623.3,403.15 121.22,0 256.62,-170.69 256.62,-293.28 0,-191.45 -415.66,-431.18 -560.2,-539.58 -556.64,-417.48 -1224.24,-703.17 -1926.6,-822.83 -1085.51,-184.94 -2206.26,145.2 -3184.85,566.44l-751.06 385.37c-485.73,293.03 -875.85,549.45 -1307.63,891.92 -162.22,128.66 -527.63,324.62 -501.46,570.77 41.87,393.71 1213.48,2027.86 1531.62,2348.77 169.14,170.62 682.35,764.48 871.37,814.95 -29.07,108.88 -438.24,460.56 -597.52,648.89 -81.24,96.05 -123.46,133.54 -204.25,235.66 -1757.62,2221.71 -1762.58,5407.55 79.52,7572.78 451.47,530.65 991.77,982.29 1600.16,1332.57 192.34,110.75 644.99,364.7 881.73,364.7 232.21,0 337.06,-374.52 -19.94,-529.96l-701.83 -361.29c-132.26,-78.82 -212.85,-140.54 -341.35,-208.53 47.42,-569.83 69.04,-820.79 -126.91,-1412.78 -63.6,-192.13 -313,-568.28 -313,-713.45 0,-731.28 1308.76,-1924.72 404.52,-2567.42 -177.05,-125.84 -385.85,-182.39 -620.29,-259.52 -484.38,-159.38 -510.49,-428.66 -822.72,-1010.25l-246.34 -413.52c-25.96,-40.7 -108.22,-128.33 -108.22,-148.39 0,-381.87 807.2,-1413.06 1108.93,-1713.84 155.85,-155.35 321.97,-327.12 504.08,-449.06 487.38,423.64 1507.83,806.5 2126.23,806.5 -446.25,387.89 -953.14,929.33 -953.14,1722.99 0,913.34 661.36,1576.34 1539.69,1576.34 561.22,0 1062.39,-183.3 1613,-183.3 126.27,238.65 175.56,799.75 184.5,1098.58 21.75,727.44 -115.16,1742.85 181.53,2384.61 66.33,143.48 142.32,253.79 277.31,345.89 982.63,670.51 2472.69,-963.09 2472.69,-1886.14 0,-819.75 -404.25,-1608.26 381.89,-2220.91 267.28,-208.3 586.57,-379.06 864.52,-565.18 3.47,155.89 53.1,323.94 70.44,479.44 155.67,1396.3 -198.94,2705.65 -942.57,3817.37 -901.54,1347.79 -2593.47,2301.84 -4296.81,2301.84l-767.43 -34.6c-365.88,29.25 -349.16,510.38 35.01,547.06 1702.63,162.59 3132.57,-354.91 4383.03,-1334.28 349.59,-273.8 638.62,-603.21 920.4,-949.21 65.63,-80.59 112.58,-142.77 173,-230.25 1298.71,-1880.21 1454.47,-4437.96 266.74,-6418.78 -407.99,-680.45 -923.65,-1309.41 -1564.61,-1771.38 -45.56,-32.85 -73.92,-49.92 -130.09,-89.86 -101.12,-71.91 -39.2,-60.1 -163.36,-93.25 41.29,-154.67 196.7,-205.47 318.54,-304.66 131.01,-106.66 233.97,-205.68 377.98,-281.89 1190.78,797.39 2108.98,2127.91 2534.15,3514.62 347.65,1133.85 381.93,2525.15 90.87,3692.79 -244.33,980.14 -696.4,1945.37 -1370.03,2699.14 -784.65,878.01 -1735.33,1618.77 -2881.56,2030.77 -1745.46,627.4 -3589.96,539.15 -5264.88,-206.86 -1243.11,-553.67 -2283.41,-1546.34 -2977.15,-2705.01 -108.58,-181.34 -204.26,-347.14 -298.7,-544.47 -494.48,-1033.17 -647.15,-1941.46 -647.15,-3202.06 0,-395.78 73.31,-640.63 73.31,-1026.45 -270.03,-180.83 -477.96,-223.57 -541.03,192.15 -210.58,1388.01 26.21,3040.77 601.86,4182.78 301.63,598.39 645.75,1133.17 1054.39,1658.39 196.32,252.33 412.77,495.23 665.61,690.78l748.76 607.63c169.4,119.77 365.98,249.84 561.82,354.65 1146.97,613.84 2295.01,965.18 3800.52,965.18 1537.41,0 2977.55,-538.77 4084.71,-1340.85 871.34,-631.24 1658.97,-1415.21 2171.97,-2373.76 1054.98,-1971.26 1266.97,-4128.51 493.26,-6261.33 -46.22,-127.4 -81.94,-184.99 -114.63,-325.29 299.89,-143.89 711.29,-246.45 1221.98,-501 473.3,-235.9 942.64,-543.68 1299.26,-900.3 213.97,-213.97 410.89,-488.97 560.51,-759.2 622.06,-1123.48 346.04,-2549.66 -106.61,-3674.05 -68.36,-169.82 -401.24,-947.4 -555.64,-947.4 -667.87,0 -2050.18,760.54 -2551.21,1151.36 -98.94,77.19 -138.22,137.84 -229.47,210.45 -247.69,197.08 -475.06,473.47 -640.52,752.52 -462.98,780.77 -526.36,1757.14 -318.03,2651.37 -87.21,-100.33 -166.12,-183.99 -265.69,-284.2 -280.53,-282.32 -594.79,-531.09 -918.09,-768.22 -158.58,-116.32 -161.8,-108.55 -258.9,-291 -256.9,-482.73 -552.64,-926.66 -877.29,-1358.92 -41.97,-55.88 -67.76,-89.59 -109.86,-146.76 -46.34,-62.92 -76.59,-119.65 -126.53,-167.74 -228.9,-220.49 -622.03,36.23 -399.3,361.84 77.48,113.27 157.19,207.26 237.73,313.96 179.3,237.58 601.18,783.94 665.01,1057.97zm-4252.46 2272.87c-510.82,0 -647.58,-84.55 -953.14,-109.98 98.25,-146.72 875.69,-674.21 1078.87,-827.41l1501.88 -1100.93c313.57,-220.47 219.88,-169.35 917.15,-29.87 273.59,54.73 546.61,114.22 795.74,157.39 243.16,42.14 619.06,146.26 838.65,151.15 -469.86,408.41 -1290.33,881.64 -1820.47,1148.93 -647.53,326.49 -1593.94,610.72 -2358.68,610.72zm7221.86 -3519.29c10.27,123.45 133.48,370.02 178.06,481.81l583.35 1400.45c67.33,160.7 11.1,169.25 -111.84,453.63 -71.97,166.51 -124.15,298.96 -194.19,465.68l-292.78 697.01c-45.4,111.14 -45.28,147.86 -125.95,240.66 -85.57,-367.32 -478.07,-999.91 -513.52,-1869.31 -16.12,-395.03 -55.15,-575.1 65.42,-1071.63 64.56,-265.92 230.54,-677.15 411.45,-798.3zm586.54 3922.54c41.77,-179.27 118.77,-313.05 183.3,-476.57l387.33 -932.4c195.62,-492.28 119.3,-402.09 482.05,-544.41l1168.07 -481.6c163.9,-68.87 345.85,-134.34 492.03,-204.48 -163.34,701.15 -382.73,1217.46 -989.47,1686.64 -821.61,635.35 -929.64,572 -1723.31,952.82zm-9384.75 -769.84c-285.16,-66.44 -1193.49,-694.16 -1356.38,-916.49 90.16,-134.64 267.43,-234.95 403.02,-330.16l843.62 -622.74c149.35,-104.88 270.01,-192.88 423.93,-309.27 373.11,-282.14 331.53,-203.35 1106.36,-48.39 392.07,78.41 856.61,154.5 1255.58,247.45 -83.63,124.88 -482.6,379.58 -638.96,497.47 -235.08,177.26 -442.78,327.37 -675.09,498.01l-1362.08 984.12zm10447.87 -1759.64c10.92,-131.25 205.75,-544.6 266.91,-686.23l832.87 -2026.55c142.79,164.27 286.79,654.22 353.25,856.49 99.74,303.53 196.63,718.83 196.63,1086.44 0,134.11 -654,349.78 -801.25,408.49l-848.41 361.36zm-13380.6 -1869.63c130.61,-195.05 1438.94,-1033.59 1722.98,-1099.77 28.04,105.01 200.94,317.44 277.53,419.01 143.54,190.37 818.7,1154.63 932.22,1230.65 -56.54,79.17 -8.79,19.05 -356.9,-46.34 -103.99,-19.54 -251.53,-41.92 -373.46,-66.44 -240.21,-48.3 -484.11,-97 -732.95,-146.89 -485.53,-97.34 -991.79,-178.94 -1469.42,-290.22zm-109.97 549.89c191.89,0 527.06,79.16 724.15,119.01l2171.92 430.88c-39.78,59.41 -1519.15,1174.91 -1649.66,1209.76 -29.13,-109.09 -180.04,-238.19 -321.51,-411.68 -336.56,-412.73 -675.92,-877.42 -924.9,-1347.97zm12940.69 1209.76c-5.1,-7.34 -11.57,-28.51 -13.48,-23.16 -1.93,5.35 -10.79,-18.22 -13.4,-23.28 -3.55,-6.89 -20.31,-38.7 -24.9,-48.42l-681.41 -1664.79c603.32,-404 559.47,-487.25 1355.76,-843.79 172.76,-77.36 344.96,-171.43 550.51,-219.32l-1173.08 2822.76zm-10631.17 -3079.38c282.33,-149.38 1033.63,-370.28 1429.71,-403.24l1785.61 2466.85c92.79,123.28 188.59,238.36 267.31,355.9l-1855.51 -344.04c-222.4,-52.27 -468.5,-494.49 -684.66,-781.71l-942.46 -1293.76z"/>
 </g>
</svg>
