<?xml version="1.0" encoding="UTF-8"?>
<!DOCTYPE svg PUBLIC "-//W3C//DTD SVG 1.1//EN" "http://www.w3.org/Graphics/SVG/1.1/DTD/svg11.dtd">
<!-- Creator: CorelDRAW 2021 (64-Bit) -->
<svg xmlns="http://www.w3.org/2000/svg" xml:space="preserve" width="297mm" height="210mm" version="1.1" style="shape-rendering:geometricPrecision; text-rendering:geometricPrecision; image-rendering:optimizeQuality; fill-rule:evenodd; clip-rule:evenodd"
viewBox="0 0 29700 21000"
 xmlns:xlink="http://www.w3.org/1999/xlink"
 xmlns:xodm="http://www.corel.com/coreldraw/odm/2003">
 <defs>
  <style type="text/css">
   <![CDATA[
    .fil0 {fill:#0D9488;fill-rule:nonzero}
   ]]>
  </style>
 </defs>
 <g id="Layer_x0020_1">
  <metadata id="CorelCorpID_0Corel-Layer"/>
  <g id="_2961096442192">
   <g id="SVGRepo_bgCarrier">
   </g>
   <g id="SVGRepo_tracerCarrier">
   </g>
   <g id="SVGRepo_iconCarrier">
    <path class="fil0" d="M24526.23 8500.62c30.37,-167.72 46.42,-338.45 47.51,-509.15 0.78,-31.4 1.5,-64.28 1.5,-96.1 0,-1616.71 -1311.11,-2927.81 -2927.82,-2927.81 -1616.71,0 -2927.81,1311.1 -2927.81,2927.81 0,31.82 0.71,64.7 1.43,96.16 1.15,170.64 17.21,341.37 47.49,509.16 -716.42,571.1 -1142.09,1432.59 -1160.16,2349 0,1618.83 1384.86,2972.09 3221.86,3285.11l-0.13 3607.74 -4603.58 0 0 -16425.51c0.02,-1.07 0.02,-2.12 0.02,-3.18 0,-317.75 -257.69,-575.44 -575.44,-575.44 -1.07,0 -2.11,0 -3.17,0l-8087.88 0.01c-1.04,-0.01 -2.09,-0.01 -3.15,-0.01 -317.75,0 -575.44,257.69 -575.44,575.44 0,1.06 0,2.11 0,3.17l0 16441.33 -1533.48 0 0 1789.57 18774.72 0.01 0 -1805.39 -1761.12 0 0 -3607.61c1840.17,-313.02 3221.86,-1666.26 3221.86,-3285.09 -18.24,-915.78 -442.51,-1776.77 -1157.17,-2349.25l-0.04 0.03zm-12084.37 -5141.08c0.01,-190.3 154.35,-344.64 344.65,-344.64l1359.56 0.02c190.32,-0.02 344.66,154.32 344.66,344.62l0 1359.58c0.1,4.15 0.22,8.44 0.22,12.65 0,190.3 -154.33,344.64 -344.64,344.64 -0.04,0 -0.21,0 -0.25,0l-1359.56 -0.02c-190.29,0.02 -344.63,-154.32 -344.63,-344.62l-0.01 -1372.23zm344.64 5090.5c0.01,-190.31 154.35,-344.64 344.65,-344.64l1359.55 0c190.32,0 344.65,154.33 344.65,344.64l0 1359.57c0,190.29 -154.33,344.61 -344.64,344.61l-1359.57 0.02c-190.29,-0.02 -344.63,-154.34 -344.63,-344.64l-0.01 -1359.56zm344.64 5077.83c-0.02,-1.06 -0.02,-2.12 -0.02,-3.17 0,-190.31 154.34,-344.64 344.64,-344.64 0,0 0,0 0,0l1359.58 0.01c0.03,-0.01 0.03,-0.01 0.03,-0.01 190.3,0 344.64,154.33 344.64,344.64 0,1.05 0,2.11 0,3.15l-0.03 -2064.63c0.03,1.05 0.03,2.11 0.03,3.15 0,190.31 -154.34,344.64 -344.64,344.64 0,0 0,0 0,0l-1359.61 0c0,0 0,0 0,0 -190.3,0 -344.64,-154.33 -344.64,-344.64 0,-1.04 0,-2.1 0,-3.15l0.02 2064.65zm344.62 1653.62c0.02,-190.32 154.35,-344.66 344.66,-344.66l1359.56 0.02c190.32,-0.02 344.65,154.32 344.65,344.62l0 1359.58c-181.14,185.5 -429.86,290.21 -689.28,290.21 -532.13,0 -963.67,-431.53 -963.67,-963.67 0,-251.66 98.59,-493.42 274.36,-673.43l-1359.54 -0.02c-190.29,-0.01 -344.63,-154.35 -344.63,-344.65l1033.89 332zm-4413.85 -10105.1c0,-190.3 154.33,-344.64 344.64,-344.64l1359.56 0.02c190.32,-0.02 344.66,154.32 344.66,344.62l0 1359.58c-106.72,54.09 -224.89,82.38 -344.64,82.38 -420.86,0 -762.17,-341.31 -762.17,-762.16 0,-287.15 161.45,-550.02 417.51,-679.81l-1359.56 0.01c-190.29,0.02 -344.63,-154.32 -344.63,-344.62l344.63 344.62zm0 3373.65c0,-190.31 154.33,-344.64 344.64,-344.64l1359.56 0c190.32,0 344.66,154.33 344.66,344.64l0 1359.57c0,190.29 -154.34,344.61 -344.64,344.61l-1359.6 0.02c-190.29,-0.02 -344.62,-154.34 -344.62,-344.64l0 -1359.56zm344.62 5077.83c0,-1.06 0,-2.12 0,-3.17 0,-190.31 154.34,-344.64 344.64,-344.64 0,0 0,0 0,0l1359.58 0.01c0.03,-0.01 0.03,-0.01 0.03,-0.01 190.31,0 344.64,154.33 344.64,344.64 0,1.05 0,2.11 0,3.15l-0.04 -2064.63c0.04,1.05 0.04,2.11 0.04,3.15 0,190.31 -154.33,344.64 -344.64,344.64 0,0 0,0 0,0l-1359.61 0c0,0 0,0 0,0 -190.3,0 -344.64,-154.33 -344.64,-344.64 0,-1.04 0,-2.1 0,-3.15l0 2064.65zm344.64 1653.62c0.02,-190.32 154.36,-344.66 344.66,-344.66l1359.55 0.02c190.32,-0.02 344.65,154.32 344.65,344.62l0 1359.58c-181.13,185.5 -429.84,290.21 -689.26,290.21 -532.14,0 -963.67,-431.53 -963.67,-963.67 0,-251.66 98.58,-493.42 274.36,-673.43l-1359.55 -0.02c-190.29,-0.01 -344.63,-154.35 -344.63,-344.65l1033.89 332z"/>
   </g>
  </g>
 </g>
</svg>
