<?xml version="1.0" encoding="UTF-8"?>
<!DOCTYPE svg PUBLIC "-//W3C//DTD SVG 1.1//EN" "http://www.w3.org/Graphics/SVG/1.1/DTD/svg11.dtd">
<!-- Creator: CorelDRAW 2021 (64-Bit) -->
<svg xmlns="http://www.w3.org/2000/svg" xml:space="preserve" width="297mm" height="210mm" version="1.1" style="shape-rendering:geometricPrecision; text-rendering:geometricPrecision; image-rendering:optimizeQuality; fill-rule:evenodd; clip-rule:evenodd"
viewBox="0 0 29700 21000"
 xmlns:xlink="http://www.w3.org/1999/xlink"
 xmlns:xodm="http://www.corel.com/coreldraw/odm/2003">
 <defs>
  <style type="text/css">
   <![CDATA[
    .fil0 {fill:#0D9488}
   ]]>
  </style>
 </defs>
 <g id="Layer_x0020_1">
  <metadata id="CorelCorpID_0Corel-Layer"/>
  <g id="_2260946628096">
   <path class="fil0" d="M12575.2 16717.06l11895.29 0c0,629.49 99.58,1326.83 -745.23,1504.21 -323.69,67.98 -10818.3,20.83 -11416.94,20.83 32.91,-123.28 123.55,-181.48 222.09,-540.43 107.27,-390.65 90.16,-630.85 44.79,-984.61zm-6062.02 -13305.94c0,-320.55 93.69,-653.01 227.15,-840.38 259.45,-364.23 997.47,-491.84 1366.51,-143.28 269.62,254.68 572.96,1032.48 579.51,1326.79l-2135.05 0c0,-184.17 -38.12,-225.13 -38.12,-343.13zm-571.89 -190.64c0,1219.71 14.29,1105.66 1029.41,1105.66 610,0 1220.01,0 1830.04,0 154.03,661.18 168.18,1617.61 189.38,2326.93l39.37 4993.24c0,413.41 -13.53,848.91 -1.25,1259.41 4,133.67 5.91,747.41 80.38,872.77 105.53,177.64 530.88,159.05 530.88,-111.5l-36.6 -7321.7 -99.31 -1273.21c-176.34,-1240.25 -180.32,-1711.22 -779.11,-2842.87 3520.3,0 7040.59,0 10560.89,0 1028.58,0 1305.64,-116.51 1716.41,914.27 56.76,142.42 185.84,543.67 189.88,725.14 -596.56,315.66 -1783.79,1469.77 -2195.24,1998.61l-368.33 470.46c-90.64,111.4 -103.31,123.03 -292.68,126.69 -1537.28,29.82 -3078.99,-3.19 -4616.43,-3.19 -237.78,0 -2752.62,-46.4 -2917.98,17.72 -77.07,29.9 -170.22,157.25 -170.22,249.16 0,347.17 304.71,305.94 648.1,305.05l6824.57 -0.04c-38.74,145.1 -193.3,334.05 -265.64,458.74l-268.11 494.41 -6367.98 -0.94c-667.16,-4.7 -700.96,438.32 -389.65,582.16 99.94,46.18 255.27,30.14 390.3,29.09l6100.45 -0.3c-69.38,131.11 -137.92,317.57 -186.21,461.95 -43.48,130 -107.98,389.18 -156.93,491.2l-5796.15 -1.01c-781.83,-6.77 -590.07,611.02 -189.62,611.02l5833.26 0c0,234.33 -28.72,397.04 -180.14,544.24 -231.5,225.03 -811.13,669.92 -811.13,980.8 0,178.65 209.17,228.75 343.14,228.75 275.36,0 794.17,-854.05 1103,-955.79 106.27,-35.01 306.62,-45.48 426.26,-69.39 159.3,-31.84 268.67,-62.99 430.46,-103.29 315.76,-78.68 508.75,-140.51 779.92,-249.48 250.28,-100.57 467.91,-187.5 717.11,-312.3 452.34,-226.5 885.85,-473.02 1301.9,-756.89 213.92,-145.96 407.4,-310.01 617.1,-450.43 0,828.13 59.85,1911.29 -33.45,2713.4l33.45 870.44c-0.08,305 0.08,610.01 0,915.02l76.95 1753.09c14.34,291.38 75.55,548.01 75.55,877.6l-9531.47 0c-491.36,0 173.05,1207.9 -421.37,1828.06l-126.65 102.1c-231.06,145.12 -459.57,166.77 -748.27,166.77 -321.91,0 -552.08,-387.83 -659.32,-636.95 -230.72,-536.02 -431,-1517.54 -446.33,-2146.24 -4.53,-185.34 -22.46,-398.53 -42,-606.15 -52.74,-560.01 -662,-510.44 -605.16,107.49 117.25,1274.61 233.23,3891.86 1905.32,3891.86l12162.16 0c1344.25,0 1906.3,-578.22 1906.3,-1906.29 0,-281.72 -47.92,-800.65 -305,-800.65l-2478.2 0c0,-432.9 -116.03,-842.59 -115.63,-1295.01l-58.9 -1389.9c-67.35,-444.96 -16.09,-4211.24 -16.09,-4864.02 0,-144.16 838.79,-869.13 975.18,-1045.48 149.52,-193.33 854.86,-965.77 854.86,-1165.82 0,-132.9 -172.11,-305.01 -305,-305.01 -199.51,0 -872.81,969.93 -1172.35,1267.72 -213.24,212 -397.59,397.19 -610.03,609.99 -415.7,416.37 -866.49,752.34 -1359.22,1080.84 -553.45,368.96 -1850.87,1104.94 -2501.04,1159.06 112.69,-168.29 453.11,-472.19 619.55,-638.62l3202.57 -3202.58c183.02,-183.02 1248.63,-1168.08 1248.63,-1343.94 0,-156.14 -65.45,-343.13 -266.89,-343.13 -240.17,0 -551.61,418.18 -714.86,581.42 -225.35,225.36 -422.77,422.78 -648.14,648.15 -391.95,391.95 -3628.54,3698.61 -3898.38,3879.3 48.01,-576.85 791.53,-2024.76 1083.36,-2424.22 560.08,-766.62 957.06,-1270.89 1614.02,-1931.7 160.38,-161.31 292.87,-260.64 456.86,-420.03 812.17,-789.41 2986.16,-2061.29 4127.82,-2086.71 0,572.82 -363.39,1414.66 -610,1906.31 -52.12,103.9 -266.9,499.3 -266.9,609.99 0,172.73 162.4,266.9 305.01,266.9 276.89,0 372.91,-364.92 482.94,-584.61 134.81,-269.18 216.75,-480.75 334.16,-771.48 164.14,-406.41 402.93,-1234.27 402.93,-1770.24 0,-458.18 -629.34,-283.51 -912.35,-226.08 -529.79,107.49 -1020.97,265.04 -1511.87,470.67l-448.99 199.15c-233.64,113.86 -636.46,410.75 -863.14,471.28 -198.02,-850.05 -647.71,-1868.17 -1677.53,-1868.17l-12200.3 0c-593.13,0 -1060.7,86.42 -1382.31,371.48 -284.56,252.22 -523.98,708.65 -523.98,1229.8z"/>
   <path class="fil0" d="M10630.78 5012.4c0,139.34 105.21,305.01 228.75,305.01l4079.48 0c303.89,0 303.89,-571.89 0,-571.89l-4003.22 0c-163.15,0 -305.01,117.54 -305.01,266.88z"/>
   <path class="fil0" d="M17836.58 14620.13c0,234.04 181.46,343.14 419.38,343.14 384.75,0 1944.59,56.12 2147.63,-63.69 257.93,-152.19 152.08,-546.33 -203.2,-546.33l-2020.68 0c-157.24,0 -343.13,128.15 -343.13,266.88z"/>
  </g>
 </g>
</svg>
