<?xml version="1.0" encoding="UTF-8"?>
<!DOCTYPE svg PUBLIC "-//W3C//DTD SVG 1.1//EN" "http://www.w3.org/Graphics/SVG/1.1/DTD/svg11.dtd">
<!-- Creator: CorelDRAW 2021 (64-Bit) -->
<svg xmlns="http://www.w3.org/2000/svg" xml:space="preserve" width="297mm" height="210mm" version="1.1" style="shape-rendering:geometricPrecision; text-rendering:geometricPrecision; image-rendering:optimizeQuality; fill-rule:evenodd; clip-rule:evenodd"
viewBox="0 0 29700 21000"
 xmlns:xlink="http://www.w3.org/1999/xlink"
 xmlns:xodm="http://www.corel.com/coreldraw/odm/2003">
 <defs>
  <style type="text/css">
   <![CDATA[
    .fil0 {fill:#0D9488}
   ]]>
  </style>
 </defs>
 <g id="Layer_x0020_1">
  <metadata id="CorelCorpID_0Corel-Layer"/>
  <g id="_2260937737264">
   <path class="fil0" d="M12278.92 18784.3l3164.87 0c-41.49,178.06 -103.33,354.11 -193.69,496.09 -432.52,679.45 -1189.43,968.04 -1963.16,686.94 -399.06,-144.99 -773.3,-508.48 -922.16,-903.72 -31.95,-84.8 -55.98,-212.42 -85.86,-279.31zm-689.79 -973.8c0,-160.3 184.25,-324.61 365.19,-324.61l3814.07 0c472.03,0 472.03,649.21 0,649.21l-3814.07 0c-180.94,0 -365.19,-164.31 -365.19,-324.6zm-649.21 -1298.41c0,-160.3 184.25,-324.61 365.19,-324.61l5112.49 0c472.03,0 472.03,649.21 0,649.21l-5112.49 0c-180.94,0 -365.19,-164.31 -365.19,-324.6zm5193.65 -2150.49l0 1176.68 -1623.02 0 0 -3246.03 -527.47 0c-1001.18,0 -1034.4,-1298.41 0,-1298.41l527.47 0 0 -1947.61 1947.62 0 0 -527.47c0,-1034.41 1298.41,-1001.19 1298.41,0l0 527.47 1947.61 0c-67.67,141.01 -29.89,277.21 -56.87,470.6 -144.71,1037.07 -496.84,1946.95 -1136.51,2758.72 -171.99,218.27 -329.02,381.15 -520.84,574.7 -134.63,135.84 -1680.81,1464.46 -1856.4,1511.35zm-8115.07 -5315.37l2596.82 0 0 -527.47c0,-1034.41 1298.41,-1001.19 1298.41,0l0 527.47 1947.62 0 0 1298.41c-1230.93,0 -1685.01,1435.43 -944.9,2202.72 246.54,255.58 544.5,394.1 944.9,394.1l0 2596.82 -2272.22 0 0 -1176.68c-181,-48.33 -733.67,-573.99 -909.77,-713.24 -1427.4,-1128.55 -2311.67,-2114.61 -2604.52,-4090.41 -30.16,-203.5 15.38,-362.27 -56.34,-511.72zm4544.44 -3002.58c0,831.04 533.71,1379.56 1298.41,1379.56l0 973.81 -1298.41 0c0,-1723.29 -2596.82,-1734.42 -2596.82,0l-1907.03 0c0,-1059.97 533.42,-2178.49 1124.36,-2973.74 104.69,-140.87 194.23,-246.48 307.73,-382.05 86.5,-103.3 242.13,-257.17 343.37,-346.4 1135.28,-1000.46 2409.51,-1491.45 4026.8,-1491.45l0 1623.01c-747.52,0 -1298.41,592.81 -1298.41,1217.26zm-5193.64 2515.67c0,1543.11 209.69,2350.15 945.88,3598.56 187.31,317.67 512.13,720.88 768.42,976.32 104.65,104.33 179.97,179.19 283.94,284.1 127.24,128.39 193.13,171.38 323.59,285.05 1394.93,1215.4 1248.79,699.34 1248.79,1794.36 0,238.04 -649.2,153.7 -649.2,1095.53 0,407.36 352.13,773.42 689.79,852.08 -27.16,326.28 -166.18,734.53 305.77,1114.37 98.6,79.35 144.84,88.55 221.7,143.46 180.09,128.7 100.44,453.39 432.84,987.31 865.19,1389.74 2955.53,1388.33 3825.63,25.13 375.43,-588.17 264.71,-861.92 424.25,-995.89 233.08,-195.74 592.07,-245.86 592.07,-990.36 0,-139.89 -30.02,-157.1 -40.57,-284.02 797.84,-185.89 938.67,-1349.91 251.28,-1752.58 -272.2,-159.45 -210.71,-1.01 -210.71,-884.82 0,-129.55 466.57,-459.16 580.57,-555.54l649.48 -527.21c1272,-1023.15 2340.58,-2797.16 2340.58,-4638.36l0 -689.79 -1947.62 0c0,-388.94 -130.66,-681.76 -373.65,-924.76 -771.63,-771.61 -2223.17,-310.78 -2223.17,924.76l-1298.41 0 0 -1623.01 -527.47 0c-1001.18,0 -1034.4,-1298.41 0,-1298.41l527.47 0 0 -2921.42c-1367.3,0 -2271.51,-44.47 -3543.6,595.08 -1153.67,579.98 -2081.96,1346 -2744.27,2489.94 -438.69,757.69 -853.38,1899.26 -853.38,2920.12z"/>
   <path class="fil0" d="M17229.11 2878.78l527.47 0 0 -1257.83c0,-200.55 164.63,-365.18 365.18,-365.18l4463.29 0c200.53,0 365.17,164.63 365.17,365.18l0 3814.08c0,496.22 -694.67,365.17 -1298.41,365.17 0,-388.94 -130.66,-681.76 -373.65,-924.76 -771.63,-771.61 -2223.17,-310.78 -2223.17,924.76l-1298.41 0 0 -1623.01 -527.47 0c-1001.19,0 -1034.41,-1298.41 0,-1298.41zm-121.74 -1379.56l0 730.35c-1230.92,0 -1685,1435.44 -944.89,2202.73 246.53,255.58 544.49,394.09 944.89,394.09l0 1623.02 2596.82 0 0 -527.47c0,-1034.41 1298.41,-1001.19 1298.41,0l0 527.47 1704.17 0c446.36,0 892.65,-446.29 892.65,-892.66l0 -4057.53c0,-446.37 -446.29,-892.66 -892.65,-892.66l-4706.74 0c-446.37,0 -892.66,446.29 -892.66,892.66z"/>
  </g>
 </g>
</svg>
