<?xml version="1.0" encoding="UTF-8"?>
<!DOCTYPE svg PUBLIC "-//W3C//DTD SVG 1.1//EN" "http://www.w3.org/Graphics/SVG/1.1/DTD/svg11.dtd">
<!-- Creator: CorelDRAW 2021 (64-Bit) -->
<svg xmlns="http://www.w3.org/2000/svg" xml:space="preserve" width="297mm" height="210mm" version="1.1" style="shape-rendering:geometricPrecision; text-rendering:geometricPrecision; image-rendering:optimizeQuality; fill-rule:evenodd; clip-rule:evenodd"
viewBox="0 0 29700 21000"
 xmlns:xlink="http://www.w3.org/1999/xlink"
 xmlns:xodm="http://www.corel.com/coreldraw/odm/2003">
 <defs>
  <style type="text/css">
   <![CDATA[
    .fil0 {fill:#0D9488;fill-rule:nonzero}
   ]]>
  </style>
 </defs>
 <g id="Layer_x0020_1">
  <metadata id="CorelCorpID_0Corel-Layer"/>
  <g id="_2961275100784">
   <g id="SVGRepo_bgCarrier">
   </g>
   <g id="SVGRepo_tracerCarrier">
   </g>
   <g id="SVGRepo_iconCarrier">
    <path class="fil0" d="M13576.81 10423.18c-105.37,0.1 -209.55,-22.03 -305.75,-64.9 -96.21,-42.96 -182.24,-105.78 -252.53,-184.33 -69.38,-80.05 -121.12,-173.77 -152.02,-275.05 -31.01,-101.3 -40.28,-207.97 -27.43,-313.14 0,-89.73 1226.23,-9111.92 9191.7,-9111.92 181.93,1.1 357.3,68.55 493.08,189.67 135.88,121.13 222.81,287.63 244.65,468.3 235.77,2347.57 -462.68,4693.52 -1944.02,6529.89 -1595.08,1844.3 -4037.56,2761.48 -7247.68,2761.48zm7736.18 -8424.04c-4795.23,418.71 -6370.38,4984.64 -6828.97,6898.74 963.93,-4.19 1917.39,-199.28 2805.46,-573.99 888.07,-374.73 1693.09,-921.69 2368.6,-1609.27 1093.23,-1325.94 1679.73,-2997.16 1654.91,-4715.48z"/>
    <path class="fil0" d="M13576.81 10413.21l-89.71 0c-2402.61,-299.08 -6978.52,-2163.33 -6978.52,-7038.31 0.83,-183.08 67.91,-359.69 188.87,-497.14 120.97,-137.46 287.6,-226.46 469.11,-250.55 1818.83,-184.13 3637.3,352.81 5064.4,1495.38 732.94,712.64 1300.3,1577.58 1662.08,2533.68 361.78,956.09 509.03,1980 431.47,2999.28 0.1,105.37 -22.03,209.55 -64.9,305.76 -42.97,96.2 -105.77,182.34 -184.33,252.51 -137.18,123.53 -313.93,194.21 -498.47,199.39zm-5503.04 -6320.51c388.8,3110.42 3240.02,4256.89 4715.47,4645.67 -42.07,-1322.59 -596.05,-2577.2 -1545.24,-3499.2 -897.19,-728.79 -2014.43,-1132.81 -3170.23,-1146.47z"/>
    <path class="fil0" d="M13576.81 14540.5c-198.29,0 -388.5,-78.76 -528.66,-219.03 -140.27,-140.16 -219.04,-330.38 -219.04,-528.66l0 -4137.26c0,-198.29 78.77,-388.51 219.04,-528.68 140.16,-140.27 330.37,-219.02 528.66,-219.02 198.29,0 388.5,78.75 528.68,219.02 140.27,140.17 219.02,330.39 219.02,528.68l0 4117.32c4.09,100.18 -12.36,200.18 -48.25,293.88 -35.79,93.62 -90.42,178.95 -160.4,250.84 -69.99,71.88 -153.84,128.7 -246.55,166.99 -92.71,38.37 -192.21,57.32 -292.5,55.92z"/>
    <path class="fil0" d="M16168.84 20831.12l-4785.27 0c-982.03,-15.64 -1918.67,-416.11 -2608.48,-1115.26 -689.82,-699.15 -1077.68,-1641.05 -1080.16,-2623.22l0 -3299.83c0,-198.29 78.78,-388.51 219,-528.68 140.21,-140.27 330.4,-219.02 528.7,-219.02l10716.99 0c198.29,0 388.5,78.75 528.68,219.02 140.25,140.17 219.02,330.39 219.02,528.68l0 3299.83c-2.59,990.65 -397.37,1940.03 -1097.93,2640.57 -700.53,700.54 -1649.81,1095.32 -2640.55,1097.91zm-6978.51 -6290.62l0 2552.14c-0.16,586.39 229.32,1149.45 639.25,1568.77 409.95,419.21 967.76,661.26 1553.99,674.32l4785.27 0c594.86,0 1165.4,-236.37 1586.11,-656.98 420.6,-420.71 656.97,-991.24 656.97,-1586.11l0 -2552.14 -9221.59 0z"/>
   </g>
  </g>
 </g>
</svg>
