<?xml version="1.0" encoding="UTF-8"?>
<!DOCTYPE svg PUBLIC "-//W3C//DTD SVG 1.1//EN" "http://www.w3.org/Graphics/SVG/1.1/DTD/svg11.dtd">
<!-- Creator: CorelDRAW 2021 (64-Bit) -->
<svg xmlns="http://www.w3.org/2000/svg" xml:space="preserve" width="297mm" height="210mm" version="1.1" style="shape-rendering:geometricPrecision; text-rendering:geometricPrecision; image-rendering:optimizeQuality; fill-rule:evenodd; clip-rule:evenodd"
viewBox="0 0 29700 21000"
 xmlns:xlink="http://www.w3.org/1999/xlink"
 xmlns:xodm="http://www.corel.com/coreldraw/odm/2003">
 <defs>
  <style type="text/css">
   <![CDATA[
    .fil0 {fill:#0D9488}
   ]]>
  </style>
 </defs>
 <g id="Layer_x0020_1">
  <metadata id="CorelCorpID_0Corel-Layer"/>
  <g id="_2961274141408">
   <g id="SVGRepo_bgCarrier">
   </g>
   <g id="SVGRepo_tracerCarrier">
   </g>
   <g id="SVGRepo_iconCarrier">
    <g id="Expanded">
     <path class="fil0" d="M7290.38 2005.38l0 17197.91c0,548.02 444.17,992.19 992.19,992.19 1900.37,0 7360.05,0 9260.41,0 548.02,0 992.19,-444.17 992.19,-992.19l0 -1327.55 6614.58 0c182.56,0 330.73,-148.17 330.73,-330.73l0 -3628.76c0,-87.64 -34.73,-171.65 -96.9,-233.83 -61.85,-61.85 -146.18,-96.9 -233.83,-96.9l-6614.58 0 0 -11580.14c0,-263.26 -104.51,-515.61 -290.71,-701.48 -185.87,-186.2 -438.22,-290.71 -701.48,-290.71l-9260.41 0c-548.02,0 -992.19,444.17 -992.19,992.19zm10583.33 9493.24c-15.54,2.32 -31.09,3.31 -47.29,3.31l-9874.57 0 0 7701.36c0,182.56 148.17,330.73 330.73,330.73 1900.37,0 7360.05,0 9260.41,0 182.56,0 330.73,-148.17 330.73,-330.73l0 -1327.55 -2775.14 0c-606.56,711.07 -1509.45,1162.18 -2516.52,1162.18 -1825.29,0 -3307.29,-1482 -3307.29,-3307.29 0,-1825.29 1482,-3307.29 3307.29,-3307.29 1007.4,0 1909.96,451.11 2516.52,1162.18l2775.14 0 0 -2086.9 -0.01 0zm-3743.19 2086.9c-435.57,-314.85 -970.36,-500.72 -1548.47,-500.72 -1460.17,0 -2645.83,1185.66 -2645.83,2645.83 0,1460.17 1185.66,2645.83 2645.83,2645.83 577.78,0 1112.9,-185.87 1548.14,-500.72l-1327.22 0c-816.57,51.92 -1631.16,-341.64 -2067.72,-1067.26 -618.13,-1027.91 -255.65,-2345.2 814.92,-2938.2 394.23,-218.61 832.45,-312.21 1255.45,-284.76l1324.9 0zm6767.04 661.46l0 2967.3 -8105.17 0c-7.61,0 -15.21,0.33 -22.82,0.99 -578.11,39.69 -1158.54,-233.83 -1467.45,-747.78 -425.32,-706.77 -167.68,-1610.65 568.52,-2018.77 282.77,-156.77 597.3,-223.9 900.58,-202.41 7.94,0.33 15.54,0.66 23.48,0.66l8102.85 0 0.01 0.01zm661.46 0l3260 0c0,0 0,2967.3 0,2967.3l-3260 0 0 -2967.3zm-3685.31 -3403.2l0 -8838.4c0,-87.64 -34.73,-171.98 -96.9,-233.83 -61.85,-62.18 -146.18,-96.9 -233.83,-96.9l-9260.41 0c-182.56,0 -330.73,148.17 -330.73,330.73l0 8835.09 9874.57 0c16.21,0 31.75,1.32 47.29,3.31l0.01 0zm-7088.84 -5200.38l-517.92 0c-182.56,0 -330.73,148.17 -330.73,330.73l0 1019.31c0,1626.86 1332.84,2949.44 2976.56,2949.44 1643.72,0 2976.56,-1322.59 2976.56,-2949.44l0 -1019.31c0,-182.56 -148.17,-330.73 -330.73,-330.73l-517.92 0 0 -848.65c0,-1174.42 -953.49,-2127.91 -2127.91,-2127.91 -1174.42,0 -2127.91,953.49 -2127.91,2127.91l0 848.65zm-187.2 661.46l4630.21 0c0,0 0,688.58 0,688.58 0,1263.72 -1038.16,2287.98 -2315.1,2287.98 -1276.95,0 -2315.1,-1024.27 -2315.1,-2287.98l0 -688.58 -0.01 0zm1984.38 1817.36l0 497.75c0,182.56 148.17,330.73 330.73,330.73 182.56,0 330.73,-148.17 330.73,-330.73l0 -497.75c265.24,-124.68 449.13,-394.23 449.13,-706.77 0,-430.28 -349.25,-779.86 -779.86,-779.86 -430.61,0 -779.86,349.58 -779.86,779.86 0,312.54 183.89,582.08 449.13,706.77zm330.73 -825.17c65.48,0 118.4,53.25 118.4,118.4 0,65.48 -52.92,118.73 -118.4,118.73 -65.48,0 -118.4,-53.25 -118.4,-118.73 0,-65.15 52.92,-118.4 118.4,-118.4zm1466.45 -1653.65l0 -848.65c0,-809.29 -657.16,-1466.45 -1466.45,-1466.45 -809.29,0 -1466.45,657.16 -1466.45,1466.45l0 848.65 2932.91 0 -0.01 0z"/>
    </g>
   </g>
  </g>
 </g>
</svg>
