<?xml version="1.0" encoding="UTF-8"?>
<!DOCTYPE svg PUBLIC "-//W3C//DTD SVG 1.1//EN" "http://www.w3.org/Graphics/SVG/1.1/DTD/svg11.dtd">
<!-- Creator: CorelDRAW 2021 (64-Bit) -->
<svg xmlns="http://www.w3.org/2000/svg" xml:space="preserve" width="297mm" height="210mm" version="1.1" style="shape-rendering:geometricPrecision; text-rendering:geometricPrecision; image-rendering:optimizeQuality; fill-rule:evenodd; clip-rule:evenodd"
viewBox="0 0 29700 21000"
 xmlns:xlink="http://www.w3.org/1999/xlink"
 xmlns:xodm="http://www.corel.com/coreldraw/odm/2003">
 <defs>
  <style type="text/css">
   <![CDATA[
    .str0 {stroke:#0D9488;stroke-width:1763.89;stroke-linecap:round;stroke-linejoin:round;stroke-miterlimit:2.61313}
    .fil0 {fill:none}
   ]]>
  </style>
 </defs>
 <g id="Layer_x0020_1">
  <metadata id="CorelCorpID_0Corel-Layer"/>
  <g id="_2961274068464">
   <g id="SVGRepo_bgCarrier">
   </g>
   <g id="SVGRepo_tracerCarrier">
   </g>
   <g id="SVGRepo_iconCarrier">
    <path id="secondary" class="fil0 str0" d="M19435.98 10638.68c-1179.22,-1177.84 -2779.12,-1839.91 -4445.85,-1839.91 -1666.71,0 -3266.61,662.07 -4445.6,1839.53"/>
    <path id="secondary-2" class="fil0 str0" d="M16468.59 13606.09c-392.4,-390.43 -924.68,-609.84 -1478.46,-609.84 -553.77,0 -1086.04,219.41 -1478.53,609.85" data-name="secondary"/>
    <path id="primary" class="fil0 str0" d="M22801.83 5353.99c353.6,178.06 576.72,540.47 576.72,936.41 0,2.44 0,4.86 0,7.3l-0.01 14029.59 -16776.81 0 0 -14029.6c0,-2.43 0,-4.85 0,-7.29 0,-395.94 223.12,-758.35 576.69,-936.41l7811.71 -3900.6 7811.7 3900.6z"/>
   </g>
  </g>
 </g>
</svg>
