<?xml version="1.0" encoding="UTF-8"?>
<!DOCTYPE svg PUBLIC "-//W3C//DTD SVG 1.1//EN" "http://www.w3.org/Graphics/SVG/1.1/DTD/svg11.dtd">
<!-- Creator: CorelDRAW 2021 (64-Bit) -->
<svg xmlns="http://www.w3.org/2000/svg" xml:space="preserve" width="297mm" height="210mm" version="1.1" style="shape-rendering:geometricPrecision; text-rendering:geometricPrecision; image-rendering:optimizeQuality; fill-rule:evenodd; clip-rule:evenodd"
viewBox="0 0 29700 21000"
 xmlns:xlink="http://www.w3.org/1999/xlink"
 xmlns:xodm="http://www.corel.com/coreldraw/odm/2003">
 <defs>
  <style type="text/css">
   <![CDATA[
    .fil0 {fill:#0D9488}
   ]]>
  </style>
 </defs>
 <g id="Layer_x0020_1">
  <metadata id="CorelCorpID_0Corel-Layer"/>
  <g id="_2260947239744">
   <path class="fil0" d="M9298.99 9562.41c-1443.67,0 -1450.43,178.15 -1376.77,-522.14 161.72,-1537.64 889.36,-2951.23 1956.43,-4024.46 146.88,-147.72 256.7,-225.47 407,-366.01 644.05,-602.25 1592.26,-1063.98 2440.25,-1302.74 671.45,-189.04 362.91,-782.4 71.97,-782.4 -596.66,0 -2089.4,832.22 -2557.4,1185.58 -709.18,535.42 -1322.29,1178.76 -1836.81,1906.17l-352.53 583.21c-479.38,892.94 -753.5,1813.31 -879.46,2863.53 -70.83,590.59 8.51,471.02 -1412.83,458.68 -170.71,-1.5 -320.91,-20.78 -434.09,54.1 -228.55,151.18 -219.88,546.23 53.21,653.44 143.67,56.41 374.4,25.62 544.2,25.39l3458.21 -0.02c156.89,234.28 92.3,64.77 145.09,424.48 73.13,498.14 216.85,954.11 437.98,1392.85 238.8,473.8 489.12,889.72 851.2,1264.38 793.1,820.69 1800.58,1441.51 2966.66,1590.03 555.97,70.81 399.85,94.45 399.85,1512.32 0,152.79 18.36,22.51 -50.4,114.96 -95.63,128.54 -299.13,55.91 -462.06,31.62 -252.42,-37.64 -472.11,-87.25 -675.7,-138.28 -403.82,-101.21 -840.84,-234.99 -1185.65,-401.05 -1777.68,-856.11 -3183.14,-2359.79 -3688.56,-4326.31 -63.46,-246.92 -68.43,-428.04 -290,-527.57 -211.21,-94.88 -430.57,46.17 -486.61,239.95 -128.68,445.01 623.28,1888.07 844.34,2294.81 373.4,687.03 902.1,1227.11 1447.33,1766.75 792.28,784.15 2060.58,1403.87 3131.39,1669.41 1661.95,412.13 1418,-212.74 1415.9,1350.64 -0.39,295.44 -62.63,772.99 366.19,772.99 525.1,0 366.16,-850.11 366.16,-1383.28l-3.03 -2606.83c-2.47,-610.41 527.66,-161.17 1861.53,-823.67 203.53,-101.09 369.55,-197.84 542.47,-311.91 1102.18,-727.02 1853.1,-1817.09 2180.5,-3108.48 65.35,-257.71 80.7,-511.47 137.95,-757.13 441.02,-102.75 967.5,-40.68 1423.96,-40.68 78.58,0 162.74,72.54 162.74,122.04 0,1161.92 -563.41,2561.36 -1266.94,3493.18 -118.72,157.22 -211.54,276.02 -336.75,436.25 -536.08,686.03 -1463.4,1351.18 -2272.5,1714.6l-1165.16 421.54c-193.06,60.41 -371.85,147.69 -358.28,398.78 39.38,728.27 1282.69,92.14 1610.32,-41.79 324.43,-132.61 742.71,-352.76 1039.54,-547.17l1110.38 -842.48c1009.78,-844.32 1926.1,-2510.36 2205.95,-3774.68 69.03,-311.83 147.23,-1131.37 247.13,-1339.59 379.77,0 759.98,-1.74 1139.7,0.54 184.39,1.11 375.65,-0.29 518.59,-51 377.79,-133.99 290.86,-722.55 -152.96,-722.55l-4271.89 0c-400.93,0 -369.85,422.79 -403.05,776.81 -90.96,970.21 -597.29,2113.98 -1358.37,2750.77 -340.45,284.82 -661.05,519.76 -1066.56,723.57 -1182.55,594.34 -2498.08,580.95 -3699.54,79.39 -366.59,-153.02 -691.81,-353.51 -968.65,-618.03l-548.94 -549.56c-656.04,-732.65 -1027.56,-1758.01 -1027.56,-2756.1 0,-640.47 177.01,-1365.28 446.92,-1912.79 189.28,-383.95 399.37,-746.84 702.62,-1046.82 65.15,-64.42 74.16,-77.67 134.69,-150.1 383.52,-458.88 1067.86,-855.52 1639.87,-1045.32 967.42,-321.02 1795.32,-40.79 1795.32,-605.07l0 -4312.57c0,-480.63 -733.91,-528.66 -734.62,119.75 -1.12,1013.83 47.34,2684.76 5.95,3586.19 -21.68,471.87 -597.79,108.6 -1916.29,768.91 -1169.16,585.5 -2103.78,1607.08 -2517.34,2853.04 -188.43,567.73 -218.94,1337.93 -452.19,1337.93z"/>
   <path class="fil0" d="M19429.47 6470.38l-1179.86 0c-95.23,0 -162.74,-67.51 -162.74,-162.74 0,-1470.1 -170.32,-1029.86 823.87,-2024.06l650.06 -694.47c189.79,-160.65 166.31,-48.02 316.2,-48.02 114.93,493.29 -76.21,850.95 183.71,1036.83 296.06,211.72 996.15,-155.44 996.15,265.07 0,113.24 -1514.15,1627.39 -1627.39,1627.39zm-5248.32 3580.26c0,201.08 165.08,366.14 366.17,366.14 230.97,0 706.22,-563.82 945.91,-803.51l2216.04 -2218.59c209.59,-220.12 230.02,-151.44 743.77,-151.29 284.78,0.08 569.89,-1.38 854.65,0.28 434.27,2.54 454.01,21.15 681.75,-213.31l2216.74 -2217.88c118.72,-119.04 396.68,-303.3 396.68,-498.38 0,-759.88 -1640.63,-207.74 -1875.96,-443.07 -248.22,-248.22 337.58,-1875.96 -443.05,-1875.96 -218.62,0 -372.67,230.24 -498.39,355.99l-1342.59 1342.6c-301.43,301.43 -573.77,573.89 -875.73,873.71 -210.98,209.5 -215.47,280.74 -212.87,682.18l3.38 1305.3c-13.38,248.04 -278.02,414.23 -603.2,739.4l-1769.95 1769.59c-165.31,163.4 -258.53,300.65 -426.98,468.1 -128.39,127.62 -376.37,298.41 -376.37,518.7z"/>
   <path class="fil0" d="M11536.65 9725.15c0,609.44 4.58,936.48 284.15,1505.97 233.7,476.02 507.12,828.32 936.05,1138.89 1140.73,825.97 2656.52,773.25 3755.94,-150.48 286.66,-240.84 257.14,-221.39 505.28,-552.53 430.34,-574.34 888.89,-2145.27 173.75,-2145.27 -164.84,0 -322.6,151.41 -357.2,293.75 -98.28,404.23 -21.71,858.85 -473.27,1479.6 -1271.69,1748.14 -4092.37,819.51 -4092.37,-1366.51 0,-909.06 546.99,-1673.17 1206.02,-2008.04 962.32,-488.98 1397.8,-27.82 1397.8,-717.82 0,-545.53 -1570.5,-285.49 -2410.61,559.38 -495.31,498.11 -925.54,1193.05 -925.54,1963.06z"/>
  </g>
 </g>
</svg>
